<?xml version="1.0" encoding="UTF-8" standalone="no"?>
<!-- Created with Inkscape (http://www.inkscape.org/) -->

<svg
   xmlns:dc="http://purl.org/dc/elements/1.1/"
   xmlns:cc="http://creativecommons.org/ns#"
   xmlns:rdf="http://www.w3.org/1999/02/22-rdf-syntax-ns#"
   xmlns:svg="http://www.w3.org/2000/svg"
   xmlns="http://www.w3.org/2000/svg"
   xmlns:sodipodi="http://sodipodi.sourceforge.net/DTD/sodipodi-0.dtd"
   xmlns:inkscape="http://www.inkscape.org/namespaces/inkscape"
   width="1280"
   height="640"
   viewBox="0 0 338.66666 169.33334"
   version="1.1"
   id="svg3759"
   inkscape:version="0.92.5 (2060ec1f9f, 2020-04-08)"
   sodipodi:docname="logo.svg">
  <defs
     id="defs3753" />
  <sodipodi:namedview
     id="base"
     pagecolor="#ffffff"
     bordercolor="#666666"
     borderopacity="1.0"
     inkscape:pageopacity="0.0"
     inkscape:pageshadow="2"
     inkscape:zoom="0.35"
     inkscape:cx="355.25004"
     inkscape:cy="-68.730785"
     inkscape:document-units="mm"
     inkscape:current-layer="layer1"
     showgrid="false"
     units="px"
     inkscape:window-width="1366"
     inkscape:window-height="712"
     inkscape:window-x="0"
     inkscape:window-y="27"
     inkscape:window-maximized="1" />
  <metadata
     id="metadata3756">
    <rdf:RDF>
      <cc:Work
         rdf:about="">
        <dc:format>image/svg+xml</dc:format>
        <dc:type
           rdf:resource="http://purl.org/dc/dcmitype/StillImage" />
        <dc:title></dc:title>
      </cc:Work>
    </rdf:RDF>
  </metadata>
  <g
     inkscape:label="Camada 1"
     inkscape:groupmode="layer"
     id="layer1"
     transform="translate(0,-127.66665)">
    <path
       inkscape:connector-curvature="0"
       style="fill:#29a361;stroke-width:2.93213677"
       d="m 141.89491,153.24944 -13.41424,25.61659 c -0.86617,1.65367 -0.29578,3.72171 1.28282,4.65149 l 21.00435,12.3727 c 1.60065,0.94312 3.63527,0.36352 4.5454,-1.29537 l 25.67438,-46.76688 h -30.30188 c -3.6678,0 -7.04152,2.08045 -8.79083,5.42147 z"
       id="path16" />
    <path
       inkscape:connector-curvature="0"
       style="fill:#248f55;stroke-width:2.93213677"
       d="m 180.98615,147.82608 -25.6732,46.76754 c -0.91195,1.6579 -2.94534,2.23903 -4.54511,1.29694 l -5.48251,-3.22831 c 1.33677,0.22279 2.72718,-0.41336 3.435,-1.70475 l 23.68287,-43.13142 z"
       id="path18" />
    <path
       inkscape:connector-curvature="0"
       style="fill:#34cb79;stroke-width:2.93213677"
       d="m 209.07866,172.62969 -9.25206,-19.08878 c -1.69741,-3.50228 -5.15617,-5.71294 -8.93775,-5.71294 H 164.1381 l 20.53902,36.11211 c -0.0676,0.0334 -0.13488,0.0665 -0.20235,0.0887 -1.29189,0.60288 -1.23912,2.52341 0.083,3.04969 l 17.73564,7.05828 c 0.82183,0.32693 1.74402,-0.0998 2.05953,-0.94972 l 6.83686,-18.45067 c 0.50546,-1.36477 -0.82185,-2.68178 -2.11173,-2.11205 z"
       id="path20" />
    <path
       inkscape:connector-curvature="0"
       style="fill:#2fb86e;stroke-width:2.93213677"
       d="m 211.19041,174.74019 -6.83894,18.45045 c -0.31406,0.85332 -1.23766,1.27963 -2.05865,0.95083 l -5.36639,-2.13672 6.39732,-17.2647 c 0.3636,-0.97853 -0.21741,-1.93261 -1.05057,-2.18271 -0.79371,-0.23828 -1.47135,-0.77685 -1.84226,-1.54229 l -8.47125,-17.47502 c -1.69652,-3.50117 -5.15411,-5.71406 -8.93714,-5.71406 h 7.86662 c 3.7804,0 7.23799,2.21289 8.93717,5.71406 l 9.25147,19.09023 c 1.2916,-0.56961 2.61694,0.74582 2.11262,2.10979 z"
       id="path22" />
    <path
       inkscape:connector-curvature="0"
       style="fill:#29a361;stroke-width:2.93213677"
       d="m 191.20583,246.22654 c -0.24924,-1.06056 -1.5687,-1.51382 -2.37386,-0.67932 L 174.97,259.91259 c -0.553,0.57296 -0.553,1.50218 0,2.07513 l 13.91532,14.42056 c 0.7999,0.82895 2.10587,0.38678 2.3686,-0.65495 h 20.46337 c 3.76751,0 7.21539,-2.19381 8.91985,-5.67569 l 11.67635,-23.85056 h -41.10766 z"
       id="path24" />
    <path
       inkscape:connector-curvature="0"
       style="fill:#248f55;stroke-width:2.93213677"
       d="m 208.48021,246.22688 6.63515,10.40464 c 1.50008,2.35218 1.66602,5.3582 0.43485,7.87249 l -2.72893,5.57318 c -1.70181,3.48066 -5.15119,5.67604 -8.91751,5.67604 h 7.81325 c 3.76636,0 7.21541,-2.19538 8.92045,-5.67604 l 11.67548,-23.85011 h -23.83274 z"
       id="path26" />
    <path
       inkscape:connector-curvature="0"
       style="fill:#29a361;stroke-width:2.93213677"
       d="m 163.28016,273.0104 v -25.38732 c 0,-1.90788 -1.49277,-3.45516 -3.33414,-3.45516 h -54.92019 l 14.13364,26.89028 c 1.75186,3.33325 5.12118,5.40749 8.7835,5.40749 h 32.00305 c 1.84108,0 3.33414,-1.54674 3.33414,-3.45529 z"
       id="path28" />
    <path
       inkscape:connector-curvature="0"
       style="fill:#248f55;stroke-width:2.93213677"
       d="m 128.31766,244.17025 -12.19679,21.1093 -11.09504,-21.1093 z"
       id="path30" />
    <path
       inkscape:connector-curvature="0"
       style="fill:#248f55;stroke-width:2.93213677"
       d="m 163.27897,247.62377 v 25.38819 c 0,1.90755 -1.49246,3.45405 -3.33295,3.45405 h -8.74775 c 1.84081,0 3.33327,-1.5465 3.33327,-3.45405 v -25.38819 c 0,-1.90767 -1.49246,-3.45406 -3.33327,-3.45406 h 8.74775 c 1.84049,-3.5e-4 3.33295,1.54639 3.33295,3.45406 z"
       id="path32" />
    <path
       inkscape:connector-curvature="0"
       style="fill:#34cb79;stroke-width:2.93213677"
       d="m 136.44905,221.73533 -2.46622,-19.23452 c -0.122,-0.95084 -0.96403,-1.61797 -1.88097,-1.49188 l -18.63157,2.56562 c -1.40302,0.19275 -1.92587,1.96187 -0.96491,2.94584 l -11.75859,17.56378 c -2.155945,3.22047 -2.374765,7.42511 -0.56574,10.8669 l 12.79573,24.34525 20.77669,-35.9656 c 0.008,0.004 0.0143,0.0113 0.0221,0.0211 1.18576,0.93311 2.86939,-0.0887 2.67352,-1.61267 z"
       id="path34" />
    <path
       inkscape:connector-curvature="0"
       style="fill:#2fb86e;stroke-width:2.93213677"
       d="m 133.77435,223.348 c -0.006,-0.008 -0.0143,-0.0113 -0.02,-0.0211 l -20.77739,35.96473 -4.27313,-8.12936 16.91111,-29.27801 0.46899,-0.81234 c 0.25643,-0.44438 0.75757,-0.6361 1.24771,-0.53747 0.003,6.7e-4 0.005,9e-4 0.008,0.001 1.04271,0.19275 2.11211,-0.70813 1.95201,-1.94314 l -2.16644,-16.90385 4.97542,-0.68376 c 0.91783,-0.12629 1.76164,0.54304 1.88332,1.49076 l 2.46652,19.2372 c 0.19583,1.52843 -1.48923,2.54389 -2.67558,1.61089 z"
       id="path36" />
    <path
       inkscape:connector-curvature="0"
       style="fill:#34cb79;stroke-width:2.93213677"
       d="m 237.93382,222.76243 -16.08453,-24.15266 c -0.98642,-1.48157 -2.90575,-1.92982 -4.41023,-1.02952 l -20.96125,12.53474 c -1.6637,0.99517 -2.17418,3.23707 -1.11511,4.89783 l 29.54949,46.33125 13.7098,-28.00423 c 1.65929,-3.38956 1.39542,-7.44884 -0.68819,-10.57741 z"
       id="path38" />
    <path
       inkscape:connector-curvature="0"
       style="fill:#2fb86e;stroke-width:2.93213677"
       d="m 238.62169,233.34039 -13.71185,28.0028 -4.59876,-7.21368 10.17775,-20.78946 c 1.65929,-3.38946 1.39599,-7.44816 -0.6882,-10.57674 l -15.51539,-23.29555 3.15438,-1.88707 c 1.50392,-0.90098 3.42386,-0.45215 4.40934,1.02952 l 16.08484,24.153 c 2.08386,3.12857 2.34716,7.18718 0.68785,10.57673 z"
       id="path40" />
  </g>
</svg>
